<?xml version="1.0" standalone="no"?>
<!DOCTYPE svg PUBLIC "-//W3C//DTD SVG 20010904//EN"
 "http://www.w3.org/TR/2001/REC-SVG-20010904/DTD/svg10.dtd">
<svg version="1.0" xmlns="http://www.w3.org/2000/svg"
 width="24.000000pt" height="24.000000pt" viewBox="0 0 24.000000 24.000000"
 preserveAspectRatio="xMidYMid meet">

<g transform="translate(0.000000,24.000000) scale(0.100000,-0.100000)"
fill="#000000" stroke="none">
<path d="M137 222 c-19 -21 -22 -32 -8 -32 12 0 41 29 41 41 0 15 -16 10 -33
-9z"/>
<path d="M53 171 c-27 -17 -35 -53 -23 -97 16 -57 32 -68 97 -69 48 -1 57 2
71 23 12 19 13 28 4 43 -15 23 -16 66 -2 74 8 5 8 11 0 20 -11 13 -129 18
-147 6z"/>
</g>
</svg>
